<?xml version="1.0" encoding="utf-8"?>
<!-- Generator: Adobe Illustrator 23.0.1, SVG Export Plug-In . SVG Version: 6.00 Build 0)  -->
<svg version="1.1" id="Layer_1" xmlns="http://www.w3.org/2000/svg" xmlns:xlink="http://www.w3.org/1999/xlink" x="0px" y="0px"
	 viewBox="0 0 54.9 15.1" style="enable-background:new 0 0 54.9 15.1;" xml:space="preserve">
<style type="text/css">
	.st0{fill:url(#SVGID_1_);}
	.st1{fill:url(#SVGID_2_);}
	.st2{fill:url(#SVGID_3_);}
	.st3{fill:url(#SVGID_4_);}
	.st4{fill:url(#SVGID_5_);}
	.st5{fill:url(#SVGID_6_);}
	.st6{fill:#9A62F2;}
	.st7{fill:#FF6262;}
	.st8{fill:#FFFFFF;}
</style>
<path d="M26.9,9.7c0.4-0.8,0.5-1.8,0.5-2.8c0-1.9-0.7-3.6-2-4.9s-3-2-4.9-2c-1.2,0-2.4,0.3-3.5,0.9c-1,0.6-1.9,1.5-2.5,2.5
	C14,4.5,13.7,5.7,13.7,7c0,1.9,0.7,3.5,2,4.9c1.3,1.3,3,2,4.9,2c1.2,0,2.4-0.3,3.4-0.9l1.2,1.6h2.1l-2-2.6
	C26,11.3,26.5,10.5,26.9,9.7z M25.7,6.9c0,1.4-0.5,2.7-1.4,3.7l-2.2-2.8H20l2.9,3.8c-0.7,0.4-1.5,0.6-2.4,0.6
	c-1.4,0-2.6-0.5-3.6-1.5S15.4,8.5,15.4,7c0-1,0.2-1.9,0.7-2.7c0.4-0.8,1.1-1.4,1.9-1.9s1.7-0.7,2.6-0.7s1.8,0.2,2.6,0.7
	c0.8,0.5,1.4,1.1,1.9,1.9C25.4,5.1,25.7,6,25.7,6.9z"/>
<path d="M15.7,8.3C15.7,8.3,15.7,8.4,15.7,8.3c0-0.4-0.4-0.9-1-1.3C13.2,6,11,6.3,9.3,6.6c-0.4,0-0.7,0.1-1,0.2c0,0.1,0,0.3,0,0.4
	c0.5-0.1,1-0.2,1.5-0.3C11.1,6.7,15.3,6.4,15.7,8.3c-0.6,1.1-3.6,1.6-4,0.4c0.4-0.8,1.9-1.1,2.4-0.4v0.1c0,0.1,0,0.3,0,0.4
	c0.1-0.3,0.2-0.5,0.1-0.6l0,0l0,0c-0.3-0.8-2.2-0.7-2.5,0.3c-0.5,1.4,2,1.3,2.7,1.2c0.9-0.2,1.3-0.6,1.3-1.2c0,0.1,0,0.2,0,0.2
	C15.7,8.5,15.7,8.4,15.7,8.3z"/>
<linearGradient id="SVGID_1_" gradientUnits="userSpaceOnUse" x1="358" y1="-527.4625" x2="358" y2="-530.8073" gradientTransform="matrix(1 0 0 -1 -346 -521.11)">
	<stop  offset="0" style="stop-color:#A259FF"/>
	<stop  offset="1" style="stop-color:#FF6262"/>
</linearGradient>
<path class="st0" d="M15.7,8.3C15.7,8.3,15.7,8.4,15.7,8.3c0-0.4-0.4-0.9-1-1.3C13.2,6,11,6.3,9.3,6.6c-0.4,0-0.7,0.1-1,0.2
	c0,0.1,0,0.3,0,0.4c0.5-0.1,1-0.2,1.5-0.3C11.1,6.7,15.3,6.4,15.7,8.3c-0.6,1.1-3.6,1.6-4,0.4c0.4-0.8,1.9-1.1,2.4-0.4v0.1
	c0,0.1,0,0.3,0,0.4c0.1-0.3,0.2-0.5,0.1-0.6l0,0l0,0c-0.3-0.8-2.2-0.7-2.5,0.3c-0.5,1.4,2,1.3,2.7,1.2c0.9-0.2,1.3-0.6,1.3-1.2
	c0,0.1,0,0.2,0,0.2C15.7,8.5,15.7,8.4,15.7,8.3z"/>
<path d="M14.8,8C14.8,8.1,14.8,8.1,14.8,8c0,0,0-0.1,0-0.2c-0.2-1.6-4.1-0.9-5-0.7c-0.5,0.1-1,0.2-1.5,0.4c0,0.1,0,0.2,0,0.4
	c0.5-0.1,1-0.3,1.5-0.4c1.1-0.2,4.6-0.9,5,0.7c-0.2,0.7-1.4,1.2-1.8,0.5c0.1-0.1,0.2-0.1,0.4-0.2V8.1c-0.3,0-0.4,0.2-0.5,0.4l0,0
	l0,0c0,0,0,0.1,0,0.2v0.2c0,0,0,0,0-0.1c0,0.2,0.2,0.3,0.4,0.4C14.2,9.6,14.7,8.9,14.8,8l0,0.2L14.8,8L14.8,8z"/>
<linearGradient id="SVGID_2_" gradientUnits="userSpaceOnUse" x1="357.55" y1="-527.9223" x2="357.55" y2="-530.5255" gradientTransform="matrix(1 0 0 -1 -346 -521.11)">
	<stop  offset="0" style="stop-color:#A259FF"/>
	<stop  offset="1" style="stop-color:#FF6262"/>
</linearGradient>
<path class="st1" d="M14.8,8C14.8,8.1,14.8,8.1,14.8,8c0,0,0-0.1,0-0.2c-0.2-1.6-4.1-0.9-5-0.7c-0.5,0.1-1,0.2-1.5,0.4
	c0,0.1,0,0.2,0,0.4c0.5-0.1,1-0.3,1.5-0.4c1.1-0.2,4.6-0.9,5,0.7c-0.2,0.7-1.4,1.2-1.8,0.5c0.1-0.1,0.2-0.1,0.4-0.2V8.1
	c-0.3,0-0.4,0.2-0.5,0.4l0,0l0,0c0,0,0,0.1,0,0.2v0.2c0,0,0,0,0-0.1c0,0.2,0.2,0.3,0.4,0.4C14.2,9.6,14.7,8.9,14.8,8l0,0.2L14.8,8
	L14.8,8z"/>
<path d="M43.7,7.4h-1.8c-1.5,0-3-0.1-4.5-0.1c-1.9-0.1-3.7-0.3-5.6-0.6c-2.1-0.4-3.9-1.3-5.7-2.3c-0.7-0.4-5-2.6-5.2-0.9l0,0v0.2
	l0,0l0,0v0.2l0,0c0.1,0.9,1.6,1,2,1.8c-0.5,0.7-2.5,0.2-3.1,0.1c-1.8-0.3-3.6-0.6-5.4-1c-1.9-0.4-3.8-1-5.7-1.1c-0.1,0-0.3,0-0.4,0
	c0,0.1,0,0.2,0,0.4c1.4-0.1,2.8,0.3,4.1,0.6c2.9,0.7,6,1.4,9,1.7c0.7,0,1.3,0,1.4-0.6c0,0,0,0.1,0,0.2c0-0.1,0-0.2,0-0.4l0,0V5.5
	c0-0.8-1.6-1-2-1.7c0.7-1.5,8,2.6,8.8,2.9c3.6,1.2,7.5,1.2,11.3,1.3c0.9,0,1.9,0,2.8,0C43.7,7.7,43.7,7.6,43.7,7.4z"/>
<linearGradient id="SVGID_3_" gradientUnits="userSpaceOnUse" x1="372" y1="-523.9321" x2="372" y2="-528.9683" gradientTransform="matrix(1 0 0 -1 -346 -521.11)">
	<stop  offset="0" style="stop-color:#A259FF"/>
	<stop  offset="1" style="stop-color:#FF6262"/>
</linearGradient>
<path class="st2" d="M43.7,7.4h-1.8c-1.5,0-3-0.1-4.5-0.1c-1.9-0.1-3.7-0.3-5.6-0.6c-2.1-0.4-3.9-1.3-5.7-2.3
	c-0.7-0.4-5-2.6-5.2-0.9l0,0v0.2l0,0l0,0v0.2l0,0c0.1,0.9,1.6,1,2,1.8c-0.5,0.7-2.5,0.2-3.1,0.1c-1.8-0.3-3.6-0.6-5.4-1
	c-1.9-0.4-3.8-1-5.7-1.1c-0.1,0-0.3,0-0.4,0c0,0.1,0,0.2,0,0.4c1.4-0.1,2.8,0.3,4.1,0.6c2.9,0.7,6,1.4,9,1.7c0.7,0,1.3,0,1.4-0.6
	c0,0,0,0.1,0,0.2c0-0.1,0-0.2,0-0.4l0,0V5.5c0-0.8-1.6-1-2-1.7c0.7-1.5,8,2.6,8.8,2.9c3.6,1.2,7.5,1.2,11.3,1.3c0.9,0,1.9,0,2.8,0
	C43.7,7.7,43.7,7.6,43.7,7.4z"/>
<path d="M44.1,8.6h-2c-6.2,0-12.4,0.6-18.5,0c-1.4-0.2-6.7-1.8-7.2,0.1c-0.2,0.8,0.8,1,1.1,1.6c-0.2,0.5-0.9,0.7-1.5,0.8
	c-1.3,0.2-2.7,0.3-4,0.2c-0.4,0-0.8-0.1-1.2-0.2c0.1,0.1,0.2,0.3,0.2,0.4c1.4,0.3,2.9,0.2,5.1,0c0.6-0.1,1.3-0.4,1.3-0.9l0,0v-0.1
	l0,0l0,0v-0.2l0,0c-0.1-0.6-0.9-0.7-1.1-1.2C16,8,19.6,8.3,20,8.4c2.1,0.3,4.1,0.7,6.2,0.8C30.7,9.4,35.1,9,39.6,9c1.5,0,3,0,4.5,0
	C44.1,8.8,44.1,8.7,44.1,8.6z"/>
<linearGradient id="SVGID_4_" gradientUnits="userSpaceOnUse" x1="373.45" y1="-528.9763" x2="373.45" y2="-532.8192" gradientTransform="matrix(1 0 0 -1 -346 -521.11)">
	<stop  offset="0" style="stop-color:#A259FF"/>
	<stop  offset="1" style="stop-color:#FF6262"/>
</linearGradient>
<path class="st3" d="M44.1,8.6h-2c-6.2,0-12.4,0.6-18.5,0c-1.4-0.2-6.7-1.8-7.2,0.1c-0.2,0.8,0.8,1,1.1,1.6
	c-0.2,0.5-0.9,0.7-1.5,0.8c-1.3,0.2-2.7,0.3-4,0.2c-0.4,0-0.8-0.1-1.2-0.2c0.1,0.1,0.2,0.3,0.2,0.4c1.4,0.3,2.9,0.2,5.1,0
	c0.6-0.1,1.3-0.4,1.3-0.9l0,0v-0.1l0,0l0,0v-0.2l0,0c-0.1-0.6-0.9-0.7-1.1-1.2C16,8,19.6,8.3,20,8.4c2.1,0.3,4.1,0.7,6.2,0.8
	C30.7,9.4,35.1,9,39.6,9c1.5,0,3,0,4.5,0C44.1,8.8,44.1,8.7,44.1,8.6z"/>
<path d="M43.8,8.1c-6.4,0-12.9,0-19.3-0.8C21,6.8,17.6,6.2,14.1,5.6c-2-0.4-3.9-0.7-5.8-0.8c0,0.1,0,0.2,0,0.3
	c2.6,0,5.2,0.6,7.8,1.1c4.2,0.7,8.3,1.3,12.5,1.6c4.8,0.3,9.5,0.5,14.2,0.5h1C43.8,8.3,43.8,8.2,43.8,8.1z"/>
<linearGradient id="SVGID_5_" gradientUnits="userSpaceOnUse" x1="372.05" y1="-525.9332" x2="372.05" y2="-529.4984" gradientTransform="matrix(1 0 0 -1 -346 -521.11)">
	<stop  offset="0" style="stop-color:#A259FF"/>
	<stop  offset="1" style="stop-color:#FF6262"/>
</linearGradient>
<path class="st4" d="M43.8,8.1c-6.4,0-12.9,0-19.3-0.8C21,6.8,17.6,6.2,14.1,5.6c-2-0.4-3.9-0.7-5.8-0.8c0,0.1,0,0.2,0,0.3
	c2.6,0,5.2,0.6,7.8,1.1c4.2,0.7,8.3,1.3,12.5,1.6c4.8,0.3,9.5,0.5,14.2,0.5h1C43.8,8.3,43.8,8.2,43.8,8.1z"/>
<path d="M39,0.5v4.4h1.4v7.3l2.9,2.9h7.2l2.9-2.9V4.9h1.5V0.5h-7.2v4.4h1.4v5.8h-4.3V4.9h1.4V0.5H39z"/>
<path d="M35.7,12.1l-1.1-1.3c-0.1,0.1-0.3,0.2-0.5,0.4l0,0c-0.3,0.3-0.7,0.5-1.1,0.7c-0.5,0.2-0.9,0.3-1.3,0.3
	c-0.6,0-1.2-0.2-1.6-0.6c-0.4-0.4-0.7-0.9-0.7-1.5c0-0.4,0.1-0.8,0.3-1.2c0.2-0.3,0.6-0.7,1.1-1.1l0,0c0.3-0.2,0.5-0.4,0.7-0.5
	c-0.7-0.8-1-1.4-1-2.2c0-0.6,0.2-1.1,0.6-1.5s1-0.6,1.7-0.6c0.7,0,1.2,0.2,1.6,0.6C34.8,4,35,4.5,35,5.1c0,0.8-0.5,1.6-1.6,2.4
	l-0.1,0.1L34.7,9c0.4-0.4,0.7-0.9,1-1.5H37c-0.3,0.8-0.8,1.6-1.5,2.4l1.9,2.2C37.4,12.1,35.7,12.1,35.7,12.1z M33.5,10.2l0.3-0.3
	l-1.5-1.7l-0.6,0.4c-0.7,0.5-1,0.9-1,1.4c0,0.3,0.1,0.5,0.3,0.7c0.2,0.2,0.5,0.3,0.8,0.3c0.2,0,0.5-0.1,0.8-0.2
	C33,10.6,33.3,10.5,33.5,10.2z M32.7,6.7l0.5-0.4c0.5-0.3,0.7-0.7,0.7-1.2c0-0.3-0.1-0.5-0.3-0.7s-0.4-0.3-0.7-0.3s-0.5,0.1-0.7,0.3
	C32,4.6,31.9,4.8,31.9,5s0.1,0.5,0.2,0.8C32.2,6.2,32.4,6.4,32.7,6.7z"/>
<path d="M6.2,0.3L0,13.5h1.9l2-4.2H9l2,4.2h1.9L6.8,0.3H6.2z M8.3,7.7H4.7l1.8-3.9L8.3,7.7z"/>
<path d="M26.9,9.7c0.4-0.8,0.5-1.8,0.5-2.8c0-1.9-0.7-3.6-2-4.9c-0.1,0-0.1-0.1-0.1-0.1c-0.4,0.3-0.8,0.5-1.2,0.8
	c-0.1,0-0.2,0.1-0.2,0.2c0.5,0.4,0.9,0.9,1.2,1.4c0.4,0.8,0.7,1.7,0.7,2.6c0,1.4-0.5,2.7-1.4,3.7l-2.2-2.8H20l2.9,3.8
	c-0.2,0.1-0.4,0.2-0.5,0.2c0.3,0.5,0.6,1,0.7,1.6c0.3-0.1,0.6-0.3,0.9-0.4l1.2,1.6h2.1l-2-2.6C26,11.3,26.5,10.5,26.9,9.7z"/>
<linearGradient id="SVGID_6_" gradientUnits="userSpaceOnUse" x1="-12.5316" y1="8.9715" x2="84.2584" y2="-58.8016">
	<stop  offset="0" style="stop-color:#A259FF"/>
	<stop  offset="1" style="stop-color:#FF6262"/>
</linearGradient>
<path class="st5" d="M109.5-24.4H-34.7v-2.1c0-1.1,0.9-2,2-2h142.3V-24.4z"/>
<image style="overflow:visible;" width="145" height="91" xlink:href="FAF23F156F25F11D.png"  transform="matrix(1 0 0 1 -49 31.1)">
</image>
<rect x="-43.5" y="-14.9" class="st6" width="5.9" height="5.9"/>
<rect x="-33.8" y="-14.9" class="st7" width="5.9" height="5.9"/>
<path class="st8" d="M123.9,5.1c0.4-0.8,0.5-1.8,0.5-2.8c0-1.9-0.7-3.6-2-4.9c-1.3-1.3-3-2-4.9-2c-1.2,0-2.4,0.3-3.5,0.9
	c-1,0.6-1.9,1.5-2.5,2.5c-0.5,1.1-0.8,2.3-0.8,3.6c0,1.9,0.7,3.5,2,4.9c1.3,1.3,3,2,4.9,2c1.2,0,2.4-0.3,3.4-0.9l1.2,1.6h2.1l-2-2.6
	C123,6.7,123.5,5.9,123.9,5.1z M122.7,2.3c0,1.4-0.5,2.7-1.4,3.7l-2.2-2.8H117l2.9,3.8c-0.7,0.4-1.5,0.6-2.4,0.6
	c-1.4,0-2.6-0.5-3.6-1.5s-1.5-2.2-1.5-3.7c0-1,0.2-1.9,0.7-2.7c0.4-0.8,1.1-1.4,1.9-1.9c0.8-0.5,1.7-0.7,2.6-0.7s1.8,0.2,2.6,0.7
	s1.4,1.1,1.9,1.9C122.4,0.5,122.7,1.4,122.7,2.3z"/>
<path class="st8" d="M112.7,3.7C112.7,3.7,112.7,3.8,112.7,3.7c0-0.4-0.4-0.9-1-1.3c-1.5-1-3.7-0.7-5.4-0.4c-0.4,0-0.7,0.1-1,0.2
	c0,0.1,0,0.3,0,0.4c0.5-0.1,1-0.2,1.5-0.3C108.1,2.1,112.3,1.8,112.7,3.7c-0.6,1.1-3.6,1.6-4,0.4c0.4-0.8,1.9-1.1,2.4-0.4v0.1
	c0,0.1,0,0.3,0,0.4c0.1-0.3,0.2-0.5,0.1-0.6l0,0l0,0c-0.3-0.8-2.2-0.7-2.5,0.3c-0.5,1.4,2,1.3,2.7,1.2c0.9-0.2,1.3-0.6,1.3-1.2
	c0,0.1,0,0.2,0,0.2C112.7,3.9,112.7,3.8,112.7,3.7z"/>
<path class="st8" d="M112.7,3.7C112.7,3.7,112.7,3.8,112.7,3.7c0-0.4-0.4-0.9-1-1.3c-1.5-1-3.7-0.7-5.4-0.4c-0.4,0-0.7,0.1-1,0.2
	c0,0.1,0,0.3,0,0.4c0.5-0.1,1-0.2,1.5-0.3C108.1,2.1,112.3,1.8,112.7,3.7c-0.6,1.1-3.6,1.6-4,0.4c0.4-0.8,1.9-1.1,2.4-0.4v0.1
	c0,0.1,0,0.3,0,0.4c0.1-0.3,0.2-0.5,0.1-0.6l0,0l0,0c-0.3-0.8-2.2-0.7-2.5,0.3c-0.5,1.4,2,1.3,2.7,1.2c0.9-0.2,1.3-0.6,1.3-1.2
	c0,0.1,0,0.2,0,0.2C112.7,3.9,112.7,3.8,112.7,3.7z"/>
<path class="st8" d="M111.8,3.4C111.8,3.5,111.8,3.5,111.8,3.4c0,0,0-0.1,0-0.2c-0.2-1.6-4.1-0.9-5-0.7c-0.5,0.1-1,0.2-1.5,0.4
	c0,0.1,0,0.2,0,0.4c0.5-0.1,1-0.3,1.5-0.4c1.1-0.2,4.6-0.9,5,0.7c-0.2,0.7-1.4,1.2-1.8,0.5c0.1-0.1,0.2-0.1,0.4-0.2V3.5
	c-0.3,0-0.4,0.2-0.5,0.4l0,0l0,0c0,0,0,0.1,0,0.2v0.2c0,0,0,0,0-0.1c0,0.2,0.2,0.3,0.4,0.4C111.2,5,111.7,4.3,111.8,3.4v0.2V3.4
	L111.8,3.4z"/>
<path class="st8" d="M111.8,3.4C111.8,3.5,111.8,3.5,111.8,3.4c0,0,0-0.1,0-0.2c-0.2-1.6-4.1-0.9-5-0.7c-0.5,0.1-1,0.2-1.5,0.4
	c0,0.1,0,0.2,0,0.4c0.5-0.1,1-0.3,1.5-0.4c1.1-0.2,4.6-0.9,5,0.7c-0.2,0.7-1.4,1.2-1.8,0.5c0.1-0.1,0.2-0.1,0.4-0.2V3.5
	c-0.3,0-0.4,0.2-0.5,0.4l0,0l0,0c0,0,0,0.1,0,0.2v0.2c0,0,0,0,0-0.1c0,0.2,0.2,0.3,0.4,0.4C111.2,5,111.7,4.3,111.8,3.4v0.2V3.4
	L111.8,3.4z"/>
<path class="st8" d="M140.7,2.8h-1.8c-1.5,0-3-0.1-4.5-0.1c-1.9-0.1-3.7-0.3-5.6-0.6c-2.1-0.4-3.9-1.3-5.7-2.3
	c-0.7-0.4-5-2.6-5.2-0.9l0,0v0.2l0,0l0,0v0.2l0,0c0.1,0.9,1.6,1,2,1.8c-0.5,0.7-2.5,0.2-3.1,0.1c-1.8-0.3-3.6-0.6-5.4-1
	c-1.9-0.4-3.8-1-5.7-1.1c-0.1,0-0.3,0-0.4,0c0,0.1,0,0.2,0,0.4c1.4-0.1,2.8,0.3,4.1,0.6c2.9,0.7,6,1.4,9,1.7c0.7,0,1.3,0,1.4-0.6
	c0,0,0,0.1,0,0.2c0-0.1,0-0.2,0-0.4l0,0V0.9c0-0.8-1.6-1-2-1.7c0.7-1.5,8,2.6,8.8,2.9c3.6,1.2,7.5,1.2,11.3,1.3c0.9,0,1.9,0,2.8,0
	C140.7,3.1,140.7,3,140.7,2.8z"/>
<path class="st8" d="M140.7,2.8h-1.8c-1.5,0-3-0.1-4.5-0.1c-1.9-0.1-3.7-0.3-5.6-0.6c-2.1-0.4-3.9-1.3-5.7-2.3
	c-0.7-0.4-5-2.6-5.2-0.9l0,0v0.2l0,0l0,0v0.2l0,0c0.1,0.9,1.6,1,2,1.8c-0.5,0.7-2.5,0.2-3.1,0.1c-1.8-0.3-3.6-0.6-5.4-1
	c-1.9-0.4-3.8-1-5.7-1.1c-0.1,0-0.3,0-0.4,0c0,0.1,0,0.2,0,0.4c1.4-0.1,2.8,0.3,4.1,0.6c2.9,0.7,6,1.4,9,1.7c0.7,0,1.3,0,1.4-0.6
	c0,0,0,0.1,0,0.2c0-0.1,0-0.2,0-0.4l0,0V0.9c0-0.8-1.6-1-2-1.7c0.7-1.5,8,2.6,8.8,2.9c3.6,1.2,7.5,1.2,11.3,1.3c0.9,0,1.9,0,2.8,0
	C140.7,3.1,140.7,3,140.7,2.8z"/>
<path class="st8" d="M141.1,4h-2c-6.2,0-12.4,0.6-18.5,0c-1.4-0.2-6.7-1.8-7.2,0.1c-0.2,0.8,0.8,1,1.1,1.6c-0.2,0.5-0.9,0.7-1.5,0.8
	c-1.3,0.2-2.7,0.3-4,0.2c-0.4,0-0.8-0.1-1.2-0.2c0.1,0.1,0.2,0.3,0.2,0.4c1.4,0.3,2.9,0.2,5.1,0c0.6-0.1,1.3-0.4,1.3-0.9l0,0V5.9
	l0,0l0,0V5.7l0,0c-0.1-0.6-0.9-0.7-1.1-1.2c-0.3-1.1,3.3-0.8,3.7-0.7c2.1,0.3,4.1,0.7,6.2,0.8c4.5,0.2,8.9-0.2,13.4-0.2
	c1.5,0,3,0,4.5,0C141.1,4.2,141.1,4.1,141.1,4z"/>
<path class="st8" d="M141.1,4h-2c-6.2,0-12.4,0.6-18.5,0c-1.4-0.2-6.7-1.8-7.2,0.1c-0.2,0.8,0.8,1,1.1,1.6c-0.2,0.5-0.9,0.7-1.5,0.8
	c-1.3,0.2-2.7,0.3-4,0.2c-0.4,0-0.8-0.1-1.2-0.2c0.1,0.1,0.2,0.3,0.2,0.4c1.4,0.3,2.9,0.2,5.1,0c0.6-0.1,1.3-0.4,1.3-0.9l0,0V5.9
	l0,0l0,0V5.7l0,0c-0.1-0.6-0.9-0.7-1.1-1.2c-0.3-1.1,3.3-0.8,3.7-0.7c2.1,0.3,4.1,0.7,6.2,0.8c4.5,0.2,8.9-0.2,13.4-0.2
	c1.5,0,3,0,4.5,0C141.1,4.2,141.1,4.1,141.1,4z"/>
<path class="st8" d="M140.8,3.5c-6.4,0-12.9,0-19.3-0.8c-3.5-0.5-6.9-1.1-10.4-1.7c-2-0.4-3.9-0.7-5.8-0.8c0,0.1,0,0.2,0,0.3
	c2.6,0,5.2,0.6,7.8,1.1c4.2,0.7,8.3,1.3,12.5,1.6c4.8,0.3,9.5,0.5,14.2,0.5h1C140.8,3.7,140.8,3.6,140.8,3.5z"/>
<path class="st8" d="M140.8,3.5c-6.4,0-12.9,0-19.3-0.8c-3.5-0.5-6.9-1.1-10.4-1.7c-2-0.4-3.9-0.7-5.8-0.8c0,0.1,0,0.2,0,0.3
	c2.6,0,5.2,0.6,7.8,1.1c4.2,0.7,8.3,1.3,12.5,1.6c4.8,0.3,9.5,0.5,14.2,0.5h1C140.8,3.7,140.8,3.6,140.8,3.5z"/>
<path class="st8" d="M136-4.1v4.4h1.4v7.3l2.9,2.9h7.2l2.9-2.9V0.3h1.5v-4.4h-7.2v4.4h1.4v5.8h-4.3V0.3h1.4v-4.4H136z"/>
<path class="st8" d="M132.7,7.5l-1.1-1.3c-0.1,0.1-0.3,0.2-0.5,0.4l0,0c-0.3,0.3-0.7,0.5-1.1,0.7c-0.5,0.2-0.9,0.3-1.3,0.3
	c-0.6,0-1.2-0.2-1.6-0.6c-0.4-0.4-0.7-0.9-0.7-1.5c0-0.4,0.1-0.8,0.3-1.2c0.2-0.3,0.6-0.7,1.1-1.1l0,0c0.3-0.2,0.5-0.4,0.7-0.5
	c-0.7-0.8-1-1.4-1-2.2c0-0.6,0.2-1.1,0.6-1.5c0.4-0.4,1-0.6,1.7-0.6c0.7,0,1.2,0.2,1.6,0.6s0.6,0.9,0.6,1.5c0,0.8-0.5,1.6-1.6,2.4
	L130.3,3l1.4,1.4c0.4-0.4,0.7-0.9,1-1.5h1.3c-0.3,0.8-0.8,1.6-1.5,2.4l1.9,2.2C134.4,7.5,132.7,7.5,132.7,7.5z M130.5,5.6l0.3-0.3
	l-1.5-1.7L128.7,4c-0.7,0.5-1,0.9-1,1.4c0,0.3,0.1,0.5,0.3,0.7s0.5,0.3,0.8,0.3c0.2,0,0.5-0.1,0.8-0.2C130,6,130.3,5.9,130.5,5.6z
	 M129.7,2.1l0.5-0.4c0.5-0.3,0.7-0.7,0.7-1.2c0-0.3-0.1-0.5-0.3-0.7s-0.4-0.3-0.7-0.3s-0.5,0.1-0.7,0.3c-0.2,0.2-0.3,0.4-0.3,0.6
	s0.1,0.5,0.2,0.8C129.2,1.6,129.4,1.8,129.7,2.1z"/>
<path class="st8" d="M103.2-4.3L97,8.9h1.9l2-4.2h5.1l2,4.2h1.9l-6.1-13.2H103.2z M105.3,3.1h-3.6l1.8-3.9L105.3,3.1z"/>
<path class="st8" d="M123.9,5.1c0.4-0.8,0.5-1.8,0.5-2.8c0-1.9-0.7-3.6-2-4.9c-0.1,0-0.1-0.1-0.1-0.1c-0.4,0.3-0.8,0.5-1.2,0.8
	c-0.1,0-0.2,0.1-0.2,0.2c0.5,0.4,0.9,0.9,1.2,1.4c0.4,0.8,0.7,1.7,0.7,2.6c0,1.4-0.5,2.7-1.4,3.7l-2.2-2.8H117l2.9,3.8
	c-0.2,0.1-0.4,0.2-0.5,0.2c0.3,0.5,0.6,1,0.7,1.6c0.3-0.1,0.6-0.3,0.9-0.4l1.2,1.6h2.1l-2-2.6C123,6.7,123.5,5.9,123.9,5.1z"/>
</svg>
