<?xml version="1.0" encoding="utf-8"?>
<!-- Generator: Adobe Illustrator 23.0.0, SVG Export Plug-In . SVG Version: 6.00 Build 0)  -->
<svg version="1.1" id="Layer_1" xmlns="http://www.w3.org/2000/svg" xmlns:xlink="http://www.w3.org/1999/xlink" x="0px" y="0px"
	 viewBox="0 0 400 400" style="enable-background:new 0 0 400 400;" xml:space="preserve">
<style type="text/css">
	.st0{fill:url(#SVGID_1_);}
</style>
<linearGradient id="SVGID_1_" gradientUnits="userSpaceOnUse" x1="50" y1="512.1946" x2="974" y2="512.1946">
	<stop  offset="0" style="stop-color:#A259FF"/>
	<stop  offset="1" style="stop-color:#FF6262"/>
</linearGradient>
<path class="st0" d="M50,87.39v255.98h84.63v424.31L302.89,937H721.1l168.27-169.32V343.37H974V87.39H553.81v255.98h84.63v337.65
	H385.55V343.37h84.63V87.39H50z"/>
<g>
	<path d="M724.65,550.73c9.16-21.64,13.96-45.93,13.96-71.98c0-50.35-17.45-93.18-51.48-127.63C653.1,316.66,610.34,299,560.6,299
		c-32.29,0-62.39,7.95-89.44,23.85c-27.05,15.9-48.87,37.98-64.57,65.8c-15.71,27.82-23.56,58.74-23.56,91.42
		c0,49.02,17.45,91.42,51.48,125.86c34.03,34.45,76.79,52.11,126.53,52.11c32.29,0,62.39-7.95,88.57-22.96l31.85,41.07h54.97
		l-52.79-67.13C702.4,590.47,715.92,571.04,724.65,550.73z M693.24,478.3c0,37.1-12.22,68.89-36.21,94.95l-55.85-71.98h-54.1
		l75.92,97.6c-18.76,10.16-39.7,15.02-62.39,15.02c-36.21,0-67.19-13.25-92.93-38.86c-25.74-25.61-38.39-57.85-38.39-95.39
		c0-25.17,5.67-48.58,17.45-69.33c11.34-20.76,27.92-37.1,48.43-49.46c20.51-11.92,42.76-18.11,66.32-18.11
		c23.12,0,45.38,6.18,66.32,18.55c20.94,12.37,37.52,28.71,48.86,48.58C687.56,430.16,693.24,453.13,693.24,478.3z"/>
	<path d="M435.84,514.47c0,0.44-0.44,0.88-0.44,1.33c-0.87-11.92-9.6-24.73-25.74-34.89c-38.83-24.73-96.42-17.66-139.18-11.48
		c-9.16,1.32-18.32,3.09-27.05,5.3c0,3.53,0,6.62,0.44,10.16c13.09-3.09,25.74-5.74,39.27-7.95c34.03-4.86,142.23-11.48,152.27,39.3
		c-14.4,25.61-92.93,40.63-103.84,7.95c9.6-19.43,48.87-27.82,62.39-9.27c-0.44,0.88-0.44,1.77-0.87,2.65
		c-1.31,2.65,1.31,7.07,0,9.27c3.49-6.63,3.93-11.92,2.62-16.78c0-0.44,0-0.88,0-1.32c0,0.44,0,0.44,0,0.88
		c-7.42-19.87-56.28-17.66-65.01,7.95c-12.65,37.54,51.05,34.01,70.24,30.47c24-4.42,34.9-16.78,34.9-30.47
		c0.44,1.77,0.44,3.97,0.44,5.74C435.84,520.21,435.84,517.57,435.84,514.47z"/>
	<path d="M435.84,514.47c0,0.44-0.44,0.88-0.44,1.33c-0.87-11.92-9.6-24.73-25.74-34.89c-38.83-24.73-96.42-17.66-139.18-11.48
		c-9.16,1.32-18.32,3.09-27.05,5.3c0,3.53,0,6.62,0.44,10.16c13.09-3.09,25.74-5.74,39.27-7.95c34.03-4.86,142.23-11.48,152.27,39.3
		c-14.4,25.61-92.93,40.63-103.84,7.95c9.6-19.43,48.87-27.82,62.39-9.27c-0.44,0.88-0.44,1.77-0.87,2.65
		c-1.31,2.65,1.31,7.07,0,9.27c3.49-6.63,3.93-11.92,2.62-16.78c0-0.44,0-0.88,0-1.32c0,0.44,0,0.44,0,0.88
		c-7.42-19.87-56.28-17.66-65.01,7.95c-12.65,37.54,51.05,34.01,70.24,30.47c24-4.42,34.9-16.78,34.9-30.47
		c0.44,1.77,0.44,3.97,0.44,5.74C435.84,520.21,435.84,517.57,435.84,514.47z"/>
	<path d="M413.13,507.06c0,0.44-0.44,1.32-0.44,1.77c0-2.21,0-4.86,0-7.07c-4.36-41.51-106.89-22.52-130.02-18.55
		c-13.09,2.21-26.18,5.3-38.83,9.27c0,3.09,0,6.18,0.44,9.27c12.65-3.53,25.74-6.62,38.83-9.27c27.92-5.3,118.67-22.52,129.58,18.99
		c-5.67,18.55-36.21,30.91-47.56,14.13c2.18-2.65,5.67-3.53,10.47-4.42c0.44,0-0.44-9.27,0-9.27c-7.42,1.32-11.34,5.3-12.65,10.16
		c0,0,0,0,0-0.44v0.88c-0.44,1.32-0.44,3.09,0,4.42v3.97c0-0.44,0-1.32,0.44-1.77c1.31,4.42,4.8,8.83,10.47,11.04
		c24.43,9.72,37.09-8.39,39.27-27.82c0.44,1.32,0.44,2.21,0.44,3.53v-8.83H413.13z"/>
	<path d="M413.13,507.06c0,0.44-0.44,1.32-0.44,1.77c0-2.21,0-4.86,0-7.07c-4.36-41.51-106.89-22.52-130.02-18.55
		c-13.09,2.21-26.18,5.3-38.83,9.27c0,3.09,0,6.18,0.44,9.27c12.65-3.53,25.74-6.62,38.83-9.27c27.92-5.3,118.67-22.52,129.58,18.99
		c-5.67,18.55-36.21,30.91-47.56,14.13c2.18-2.65,5.67-3.53,10.47-4.42c0.44,0-0.44-9.27,0-9.27c-7.42,1.32-11.34,5.3-12.65,10.16
		c0,0,0,0,0-0.44v0.88c-0.44,1.32-0.44,3.09,0,4.42v3.97c0-0.44,0-1.32,0.44-1.77c1.31,4.42,4.8,8.83,10.47,11.04
		c24.43,9.72,37.09-8.39,39.27-27.82c0.44,1.32,0.44,2.21,0.44,3.53v-8.83H413.13z"/>
	<path d="M1158.79,491.46h-47.12c-38.83,0-77.22-1.77-116.05-3.53c-48.43-2.65-96.42-7.07-143.98-16.34
		c-53.66-10.16-100.79-33.12-148.34-59.18c-17.02-9.27-128.71-68.01-135.25-24.29c0,0,0-0.44-0.44-0.44v3.97c0,0.44,0,0.44,0,0.88
		v0.44v4.42c0-0.44,0.44-0.88,0.44-1.32c3.49,22.52,42.32,26.5,50.61,45.49c-12.22,18.99-63.7,5.3-79.41,2.65
		c-46.25-8.83-92.49-16.34-138.74-25.61c-49.74-10.16-98.17-24.73-148.78-27.82c-3.49-0.44-7.42-0.44-10.91,0
		c0,3.09,0.44,6.18,0.44,9.27c35.34-1.77,71.99,7.95,106.02,15.9c76.35,17.66,156.19,37.54,234.29,43.72
		c18.76,1.32,34.47-0.44,37.52-15.46c0.44,1.32,0.44,2.65,0.44,3.97c0-3.09,0-6.18,0-9.27c0,0,0,0.44-0.44,0.44
		c0-0.88,0.44-1.77,0-2.65c-0.87-19.87-41.01-26.5-50.61-44.6c18.76-38.42,208.11,68.45,227.31,75.08
		c92.06,32.24,195.02,31.36,291.45,34.45c24,0.88,47.99,0.88,72.42,0.88C1159.66,498.08,1159.22,494.55,1158.79,491.46z"/>
	<path d="M1158.79,491.46h-47.12c-38.83,0-77.22-1.77-116.05-3.53c-48.43-2.65-96.42-7.07-143.98-16.34
		c-53.66-10.16-100.79-33.12-148.34-59.18c-17.02-9.27-128.71-68.01-135.25-24.29c0,0,0-0.44-0.44-0.44v3.97c0,0.44,0,0.44,0,0.88
		v0.44v4.42c0-0.44,0.44-0.88,0.44-1.32c3.49,22.52,42.32,26.5,50.61,45.49c-12.22,18.99-63.7,5.3-79.41,2.65
		c-46.25-8.83-92.49-16.34-138.74-25.61c-49.74-10.16-98.17-24.73-148.78-27.82c-3.49-0.44-7.42-0.44-10.91,0
		c0,3.09,0.44,6.18,0.44,9.27c35.34-1.77,71.99,7.95,106.02,15.9c76.35,17.66,156.19,37.54,234.29,43.72
		c18.76,1.32,34.47-0.44,37.52-15.46c0.44,1.32,0.44,2.65,0.44,3.97c0-3.09,0-6.18,0-9.27c0,0,0,0.44-0.44,0.44
		c0-0.88,0.44-1.77,0-2.65c-0.87-19.87-41.01-26.5-50.61-44.6c18.76-38.42,208.11,68.45,227.31,75.08
		c92.06,32.24,195.02,31.36,291.45,34.45c24,0.88,47.99,0.88,72.42,0.88C1159.66,498.08,1159.22,494.55,1158.79,491.46z"/>
	<path d="M1170.13,522.94h-51.05c-159.25,0-320.24,16.78-478.62,0.44c-37.08-3.97-172.77-46.37-187.17,3.09
		c-6.11,20.76,20.07,26.5,27.92,41.95c-5.67,13.25-22.69,17.67-38.83,20.32c-33.16,4.41-70.68,7.51-103.4,4.41
		c-9.6-0.88-20.51-3.09-30.54-6.18c2.18,3.53,3.93,7.07,6.11,10.16c36.21,7.95,75.04,5.74,133.07-1.32
		c16.14-2.21,32.72-9.72,34.47-24.29c0,0.44,0,0.44,0.44,0.88v-2.65c0,0,0,0,0-0.44v-0.44v-4.41c0,0.44-0.44,0.88-0.44,0.88
		c-3.05-14.57-22.69-17.22-27.92-30.03c-12.22-29.59,81.15-21.64,93.37-19.87c53.66,8.39,105.58,17.66,160.12,20.31
		c115.18,6.18,231.24-3.97,346.42-5.74c38.83-0.44,77.66-0.88,116.93-0.88C1170.56,527.35,1170.56,525.15,1170.13,522.94z"/>
	<path d="M1170.13,522.94h-51.05c-159.25,0-320.24,16.78-478.62,0.44c-37.08-3.97-172.77-46.37-187.17,3.09
		c-6.11,20.76,20.07,26.5,27.92,41.95c-5.67,13.25-22.69,17.67-38.83,20.32c-33.16,4.41-70.68,7.51-103.4,4.41
		c-9.6-0.88-20.51-3.09-30.54-6.18c2.18,3.53,3.93,7.07,6.11,10.16c36.21,7.95,75.04,5.74,133.07-1.32
		c16.14-2.21,32.72-9.72,34.47-24.29c0,0.44,0,0.44,0.44,0.88v-2.65c0,0,0,0,0-0.44v-0.44v-4.41c0,0.44-0.44,0.88-0.44,0.88
		c-3.05-14.57-22.69-17.22-27.92-30.03c-12.22-29.59,81.15-21.64,93.37-19.87c53.66,8.39,105.58,17.66,160.12,20.31
		c115.18,6.18,231.24-3.97,346.42-5.74c38.83-0.44,77.66-0.88,116.93-0.88C1170.56,527.35,1170.56,525.15,1170.13,522.94z"/>
	<path d="M1163.14,507.82c-166.23-0.88-333.77-1.33-499.12-21.2c-90.31-11.04-179.75-27.38-269.2-43.28
		c-51.48-9.27-101.66-18.55-151.39-19.43c0,3.09,0.44,6.18,0.44,8.83c67.19,0,134.82,16.78,202.44,28.71
		c107.76,18.99,214.22,34.89,323.3,42.4c123.04,8.39,244.76,12.36,368.23,12.36l25.74-0.44
		C1162.71,513.56,1163.14,510.91,1163.14,507.82z"/>
	<path d="M1163.14,507.82c-166.23-0.88-333.77-1.33-499.12-21.2c-90.31-11.04-179.75-27.38-269.2-43.28
		c-51.48-9.27-101.66-18.55-151.39-19.43c0,3.09,0.44,6.18,0.44,8.83c67.19,0,134.82,16.78,202.44,28.71
		c107.76,18.99,214.22,34.89,323.3,42.4c123.04,8.39,244.76,12.36,368.23,12.36l25.74-0.44
		C1162.71,513.56,1163.14,510.91,1163.14,507.82z"/>
	<path d="M952.4,613.42l-27.49-32.68c-2.18,2.21-6.54,5.74-12.22,10.6l-0.44,0.44c-7.85,6.63-17.89,12.37-29.67,17.22
		c-11.78,4.86-22.69,7.07-33.16,7.07c-16.14,0-30.1-5.3-41.45-16.34c-11.34-10.6-17.02-23.85-17.02-39.3
		c0-11.04,2.62-21.2,8.29-30.47c5.67-8.83,14.83-18.11,27.49-27.38l0.44-0.44c7.42-5.74,13.96-9.72,19.2-12.81
		c-17.89-19.43-26.61-37.54-26.61-55.64c0-16.34,5.67-29.59,16.58-39.75c10.91-10.16,25.31-15.02,42.76-15.02
		c17.02,0,31.41,4.86,42.32,15.02c10.91,10.16,16.58,22.52,16.58,37.98c0,20.76-13.96,41.07-41.45,60.94l-2.18,1.77l33.16,38.42
		c9.6-10.6,18.32-23.4,25.3-38.42h33.6c-8.29,21.2-20.94,41.95-38.39,62.71l47.99,56.09H952.4z M896.12,563.96l7.42-7.07
		l-38.39-44.6l-14.83,10.6c-17.45,11.92-26.18,24.29-26.18,36.66c0,6.62,3.05,12.36,8.73,17.22c5.67,4.86,12.65,7.07,20.94,7.07
		c6.11,0,13.52-1.77,21.38-5.3C883.03,574.56,890.01,569.7,896.12,563.96z M874.31,471.66l13.09-9.27
		c12.22-8.39,17.89-18.55,17.89-30.03c0-7.07-2.62-12.81-7.42-17.66s-11.34-7.07-19.2-7.07c-7.42,0-13.52,2.21-18.32,6.62
		c-4.8,4.42-7.42,9.72-7.42,16.34c0,6.18,1.75,13.25,5.67,20.32C862.53,458.41,867.76,465.48,874.31,471.66z"/>
	<path d="M188.45,307.38L28.77,649.64h49.3L129.11,541h133.51l51.48,108.64h47.99L204.16,307.38H188.45z M242.55,497.28h-93.37
		l46.68-100.25L242.55,497.28z"/>
	<path d="M724.66,550.78c9.16-21.64,13.96-45.93,13.96-71.98c0-50.34-17.45-93.18-51.48-127.63c-1.31-1.32-2.18-2.21-3.49-3.09
		c-10.47,7.51-21.38,13.69-32.29,20.76c-2.18,1.32-4.36,3.53-6.11,4.86c12.65,10.16,23.12,22.08,30.98,36.21
		c11.34,20.31,17.45,43.28,17.45,68.45c0,37.1-12.22,68.89-36.21,94.95l-56.28-71.98h-54.1l75.92,97.6
		c-4.36,2.21-9.16,4.42-13.96,6.18c8.29,12.81,14.83,26.06,19.2,40.19c7.85-3.09,15.27-6.62,22.69-11.04l31.85,41.07h54.97
		l-52.79-67.13C702.4,590.52,715.93,571.09,724.66,550.78z"/>
</g>
</svg>
